<svg width="48.000000" height="48.000000" viewBox="0 0 48 48" fill="none" xmlns="http://www.w3.org/2000/svg" xmlns:xlink="http://www.w3.org/1999/xlink">
	<desc>
			Created with Pixso.
	</desc>
	<defs/>
	<rect id="Frame 21109" rx="12.000000" width="48.000000" height="48.000000" fill="#4C6FFF" fill-opacity="0.100000"/>
	<path id="Vector" d="M23.99 19.82C22.06 19.82 20.49 21.71 20.49 24.04C20.49 26.37 22.06 28.25 23.99 28.25C25.93 28.25 27.49 26.37 27.49 24.04C27.49 21.71 25.93 19.82 23.99 19.82ZM37.17 15.18C35.47 14.47 33.77 14.2 32.08 14.2C26.69 14.19 21.3 16.92 15.91 16.92C14.56 16.92 13.21 16.75 11.86 16.32C11.71 16.27 11.55 16.25 11.41 16.25C10.65 16.25 10 16.83 10 17.64L10 31.52C10 32.08 10.31 32.6 10.82 32.81C12.52 33.52 14.21 33.79 15.91 33.79C21.3 33.79 26.69 31.07 32.08 31.07C33.43 31.07 34.78 31.24 36.13 31.67C36.28 31.72 36.44 31.74 36.58 31.74C37.34 31.74 38 31.16 38 30.35L38 16.47C37.99 15.91 37.68 15.39 37.17 15.18ZM35.89 26.88C34.72 27.03 33.77 27.9 33.52 29.05C33.04 29.01 32.57 28.97 32.08 28.97C29.12 28.97 26.25 29.69 23.48 30.4C20.84 31.06 18.34 31.69 15.91 31.69C15.56 31.69 15.22 31.68 14.88 31.65C14.82 30.16 13.6 28.96 12.1 28.96L12.1 21.23C13.45 21.23 14.59 20.25 14.84 18.96C15.2 18.98 15.54 19.02 15.91 19.02C18.87 19.02 21.74 18.3 24.51 17.59C27.15 16.93 29.64 16.3 32.08 16.3C32.55 16.3 33.01 16.33 33.45 16.38C33.49 17.78 34.54 18.91 35.89 19.08L35.89 26.88Z" fill="#4C6FFF" fill-opacity="1.000000" fill-rule="nonzero"/>
</svg>
