<svg width="24.000000" height="24.000000" viewBox="0 0 24 24" fill="none" xmlns="http://www.w3.org/2000/svg" xmlns:xlink="http://www.w3.org/1999/xlink">
	<desc>
			Created with Pixso.
	</desc>
	<defs>
		<clipPath id="clip10_1723">
			<rect id="eye 1" width="24.000000" height="24.000000" fill="white" fill-opacity="0"/>
		</clipPath>
	</defs>
	<rect id="eye 1" width="24.000000" height="24.000000" fill="#FFFFFF" fill-opacity="0"/>
	<g clip-path="url(#clip10_1723)">
		<g opacity="0.400000">
			<path id="Vector" d="M23.85 11.39C21.59 6.98 17.12 4 12 4C6.87 4 2.4 6.98 0.14 11.39C0.04 11.58 0 11.78 0 12C0 12.21 0.04 12.41 0.14 12.6C2.4 17.01 6.87 20 12 20C17.12 20 21.59 17.01 23.85 12.6C23.95 12.41 24 12.21 24 11.99C24 11.78 23.95 11.58 23.85 11.39ZM12 18L12 18C10.4 17.99 8.88 17.36 7.76 16.24C6.63 15.11 6 13.59 6 12C6 10.41 6.63 8.88 7.76 7.76C8.88 6.63 10.41 6 12 6C13.59 6 15.11 6.63 16.24 7.76C17.36 8.88 17.99 10.41 18 12C18 13.59 17.36 15.11 16.24 16.24C15.12 17.36 13.59 17.99 12 18Z" fill="#3366FF" fill-opacity="1.000000" fill-rule="nonzero"/>
		</g>
		<path id="Vector" d="M15.86 13.03C15.72 13.54 15.48 14.01 15.16 14.43C14.84 14.85 14.45 15.19 13.99 15.46C13.54 15.72 13.03 15.89 12.51 15.95C11.99 16.02 11.46 15.99 10.96 15.85C10.45 15.71 9.97 15.47 9.56 15.15C9.14 14.83 8.8 14.43 8.54 13.98C8.28 13.52 8.11 13.02 8.04 12.5C7.98 11.98 8.01 11.45 8.15 10.94C8.54 11.22 9.01 11.36 9.48 11.32C9.96 11.29 10.41 11.08 10.74 10.74C11.08 10.41 11.29 9.96 11.32 9.48C11.36 9.01 11.22 8.54 10.94 8.15C11.62 7.96 12.34 7.95 13.02 8.13C13.7 8.3 14.33 8.66 14.83 9.15C15.33 9.65 15.69 10.27 15.87 10.95C16.05 11.63 16.05 12.35 15.86 13.03L15.86 13.03Z" fill="#3366FF" fill-opacity="1.000000" fill-rule="nonzero"/>
	</g>
</svg>
