<svg width="61.000000" height="22.000000" viewBox="0 0 61 22" fill="none" xmlns="http://www.w3.org/2000/svg" xmlns:xlink="http://www.w3.org/1999/xlink">
	<desc>
			Created with Pixso.
	</desc>
	<defs/>
	<path id="Vector" d="M40.3 -0.56L42.47 0.34L59.92 20.14C60.5 20.79 60.04 21.83 59.16 21.83L20.6 21.83L40.3 -0.56Z" fill="#2044A0" fill-opacity="1.000000" fill-rule="nonzero"/>
	<path id="Vector" d="M19.47 21.81L26.96 21.81L42.55 4.11C44.16 2.31 42.86 -0.56 40.44 -0.56C39.62 -0.56 38.87 -0.22 38.33 0.4L19.47 21.81Z" fill="#C7DAFF" fill-opacity="1.000000" fill-rule="nonzero"/>
	<path id="Vector" d="M20.22 -0.56L22.39 0.34L41.31 21.81L0.53 21.81L20.22 -0.56Z" fill="#3366FF" fill-opacity="1.000000" fill-rule="nonzero"/>
	<path id="Vector" d="M0.51 21.81L6.89 21.81L22.47 4.11C24.06 2.31 22.77 -0.56 20.34 -0.56C19.53 -0.56 18.77 -0.22 18.24 0.4L0.13 20.97C-0.17 21.29 0.07 21.81 0.51 21.81Z" fill="#C7DAFF" fill-opacity="1.000000" fill-rule="nonzero"/>
</svg>
